# xmcd
#
# Track frame offsets: 
#        150
#        11925
#        23979
#        35358
#        49146
#        60951
#        75832
#        86164
#        98310
#        112922
#
# Disc length: 1662 seconds
#
# Revision: 0
# Processed by: cddbd v1.5.1PL0 Copyright (c) Steve Scherf et al.
# Submitted via: ExactAudioCopy v0.95a5
#
DISCID=66067c0a
DTITLE=Donna Fargo - Greatest Hits
DYEAR=2000
DGENRE=Country
TTITLE0=The Happiest Girl in the Whole U.S.A.
TTITLE1=Funny Face
TTITLE2=Superman
TTITLE3=You Can't Be a Beacon (If Your Light Don't Shine)
TTITLE4=It Do Feel Good
TTITLE5=You Were Always There
TTITLE6=Hello Little Bluebird
TTITLE7=U.S. of A.
TTITLE8=I'll Try a Little Bit Harder
TTITLE9=Little Girl Gone
EXTD=
EXTT0=
EXTT1=
EXTT2=
EXTT3=
EXTT4=
EXTT5=
EXTT6=
EXTT7=
EXTT8=
EXTT9=
PLAYORDER=
